<svg width="246" height="375" viewBox="0 0 246 375" fill="none" xmlns="http://www.w3.org/2000/svg">
<rect x="91" y="0.16626" width="20" height="318" fill="#D9D9D9"/>
<rect x="226" y="0.16626" width="20" height="374" fill="#D9D9D9"/>
<rect x="92.6527" y="6.84033" width="20" height="390.872" transform="rotate(-20 92.6527 6.84033)" fill="#D9D9D9"/>
<path d="M111 317.666C111 332.386 105.153 346.502 94.7444 356.911C84.3362 367.319 70.2195 373.166 55.5 373.166C40.7805 373.166 26.6638 367.319 16.2556 356.911C5.84731 346.502 2.22259e-06 332.386 0 317.666L19.4595 317.666C19.4595 327.225 23.2566 336.392 30.0155 343.151C36.7744 349.91 45.9415 353.707 55.5 353.707C65.0585 353.707 74.2256 349.91 80.9845 343.151C87.7434 336.392 91.5405 327.225 91.5405 317.666H111Z" fill="#D9D9D9"/>
</svg>
